# xmcd
#
# Track frame offsets:
#	150
#	12735
#	31192
#	48486
#	64471
#	80896
#	96819
#	114869
#	132426
#	150295
#	167758
#	181037
#	198032
#
# Disc length: 2842 seconds
#
# Revision: 0
# Processed by: cddbd v1.5.1PL2 Copyright (c) Steve Scherf et al.
# Submitted via: EasyCDDAExtractor 9.0.0.1
#
DISCID=a30b180d
DTITLE=Aaron Watson - San Angelo
DYEAR=2006
DGENRE=Texas Country
TTITLE0=Heyday Tonight
TTITLE1=Good Thing Going
TTITLE2=In Harm's Way
TTITLE3=3rd Gear and 17
TTITLE4=Unbelievably Beautiful
TTITLE5=Haunted House
TTITLE6=I'm a Memory
TTITLE7=San Angelo
TTITLE8=Except for Jessie
TTITLE9=Blame it on Me
TTITLE10=All American Country Girl
TTITLE11=True Love Ways
TTITLE12=Nobody's Crying but the Baby
EXTD=
EXTT0=
EXTT1=
EXTT2=
EXTT3=
EXTT4=
EXTT5=
EXTT6=
EXTT7=
EXTT8=
EXTT9=
EXTT10=
EXTT11=
EXTT12=
PLAYORDER=
